<svg xmlns="http://www.w3.org/2000/svg" xmlns:xlink="http://www.w3.org/1999/xlink" width="500" zoomAndPan="magnify" viewBox="0 0 375 112.499997" height="150" preserveAspectRatio="xMidYMid meet" version="1.0"><defs><g/><clipPath id="a11c706a38"><path d="M 70 86.0625 L 339.347656 86.0625 L 339.347656 107.714844 L 70 107.714844 Z M 70 86.0625 " clip-rule="nonzero"/></clipPath></defs><g fill="#0368fe" fill-opacity="1"><g transform="translate(63.271121, 49.929894)"><g><path d="M 26.984375 -17.328125 L 11.65625 -17.328125 L 9.78125 -6.625 L 27.796875 -6.625 L 26.65625 0 L 0.578125 0 L 7.53125 -40 L 33.546875 -40 L 32.359375 -33.328125 L 14.421875 -33.328125 L 12.75 -23.796875 L 28.140625 -23.796875 Z M 26.984375 -17.328125 "/></g></g></g><g fill="#0368fe" fill-opacity="1"><g transform="translate(91.583947, 49.929894)"><g><path d="M 12.453125 -29.75 L 11.8125 -26.375 C 14.207031 -29.050781 17.109375 -30.351562 20.515625 -30.28125 C 22.347656 -30.238281 23.867188 -29.8125 25.078125 -29 C 26.285156 -28.195312 27.101562 -27.113281 27.53125 -25.75 C 30.144531 -28.84375 33.222656 -30.351562 36.765625 -30.28125 C 39.492188 -30.21875 41.546875 -29.28125 42.921875 -27.46875 C 44.304688 -25.65625 44.890625 -23.035156 44.671875 -19.609375 L 44.609375 -18.921875 L 41.453125 0 L 33.6875 0 L 36.84375 -18.984375 C 36.914062 -19.660156 36.941406 -20.289062 36.921875 -20.875 C 36.796875 -22.800781 35.695312 -23.789062 33.625 -23.84375 C 31.5 -23.84375 29.675781 -22.707031 28.15625 -20.4375 L 28.078125 -19.8125 L 24.609375 0 L 16.875 0 L 20.03125 -18.921875 C 20.101562 -19.609375 20.128906 -20.242188 20.109375 -20.828125 C 19.984375 -22.765625 18.894531 -23.757812 16.84375 -23.8125 C 14.882812 -23.875 13.113281 -22.953125 11.53125 -21.046875 L 7.828125 0 L 0.078125 0 L 5.21875 -29.71875 Z M 12.453125 -29.75 "/></g></g></g><g fill="#0368fe" fill-opacity="1"><g transform="translate(136.460574, 49.929894)"><g><path d="M 28.625 -14.78125 C 28.238281 -11.664062 27.421875 -8.898438 26.171875 -6.484375 C 24.929688 -4.066406 23.382812 -2.269531 21.53125 -1.09375 C 19.6875 0.0703125 17.640625 0.628906 15.390625 0.578125 C 12.515625 0.503906 10.242188 -0.566406 8.578125 -2.640625 L 5.859375 11.421875 L -1.890625 11.421875 L 5.21875 -29.71875 L 12.359375 -29.75 L 11.84375 -26.765625 C 13.988281 -29.179688 16.515625 -30.351562 19.421875 -30.28125 C 22.335938 -30.207031 24.597656 -29.148438 26.203125 -27.109375 C 27.816406 -25.066406 28.679688 -22.296875 28.796875 -18.796875 C 28.828125 -17.660156 28.769531 -16.320312 28.625 -14.78125 Z M 20.9375 -15.359375 L 21.09375 -18 C 21.132812 -19.769531 20.8125 -21.175781 20.125 -22.21875 C 19.4375 -23.269531 18.429688 -23.8125 17.109375 -23.84375 C 14.859375 -23.914062 13 -22.960938 11.53125 -20.984375 L 9.3125 -8.734375 C 9.988281 -6.890625 11.445312 -5.929688 13.6875 -5.859375 C 15.550781 -5.796875 17.101562 -6.515625 18.34375 -8.015625 C 19.59375 -9.523438 20.457031 -11.972656 20.9375 -15.359375 Z M 20.9375 -15.359375 "/></g></g></g><g fill="#0368fe" fill-opacity="1"><g transform="translate(164.800872, 49.929894)"><g><path d="M 17.09375 -30.28125 C 19.707031 -30.238281 21.960938 -29.5625 23.859375 -28.25 C 25.753906 -26.945312 27.144531 -25.144531 28.03125 -22.84375 C 28.925781 -20.539062 29.242188 -17.988281 28.984375 -15.1875 C 28.566406 -10.46875 26.921875 -6.644531 24.046875 -3.71875 C 21.179688 -0.800781 17.644531 0.617188 13.4375 0.546875 C 10.851562 0.515625 8.617188 -0.144531 6.734375 -1.4375 C 4.847656 -2.726562 3.453125 -4.519531 2.546875 -6.8125 C 1.648438 -9.101562 1.332031 -11.628906 1.59375 -14.390625 C 2.070312 -19.304688 3.738281 -23.207031 6.59375 -26.09375 C 9.445312 -28.988281 12.945312 -30.382812 17.09375 -30.28125 Z M 9.265625 -11.5625 C 9.296875 -9.800781 9.703125 -8.410156 10.484375 -7.390625 C 11.273438 -6.378906 12.382812 -5.859375 13.8125 -5.828125 C 16.195312 -5.753906 18.066406 -6.847656 19.421875 -9.109375 C 20.773438 -11.367188 21.40625 -14.335938 21.3125 -18.015625 C 21.238281 -19.773438 20.8125 -21.179688 20.03125 -22.234375 C 19.257812 -23.285156 18.148438 -23.832031 16.703125 -23.875 C 14.398438 -23.945312 12.554688 -22.859375 11.171875 -20.609375 C 9.785156 -18.367188 9.148438 -15.351562 9.265625 -11.5625 Z M 9.265625 -11.5625 "/></g></g></g><g fill="#0368fe" fill-opacity="1"><g transform="translate(193.278515, 49.929894)"><g><path d="M 26.921875 -10.828125 L 33.984375 -29.71875 L 41.703125 -29.71875 L 29.203125 0 L 22.71875 0 L 20.515625 -18.59375 L 11.84375 0 L 5.359375 0 L 3.15625 -29.71875 L 10.40625 -29.71875 L 10.875 -11.015625 L 19.375 -29.71875 L 24.96875 -29.71875 Z M 26.921875 -10.828125 "/></g></g></g><g fill="#0368fe" fill-opacity="1"><g transform="translate(231.013211, 49.929894)"><g><path d="M 14.203125 0.546875 C 11.597656 0.523438 9.289062 -0.109375 7.28125 -1.359375 C 5.28125 -2.609375 3.785156 -4.328125 2.796875 -6.515625 C 1.804688 -8.710938 1.421875 -11.128906 1.640625 -13.765625 L 1.734375 -14.859375 C 2.003906 -17.753906 2.84375 -20.410156 4.25 -22.828125 C 5.664062 -25.242188 7.476562 -27.109375 9.6875 -28.421875 C 11.90625 -29.734375 14.363281 -30.351562 17.0625 -30.28125 C 20.882812 -30.207031 23.78125 -28.800781 25.75 -26.0625 C 27.71875 -23.320312 28.46875 -19.851562 28 -15.65625 L 27.5625 -12.28125 L 9.34375 -12.28125 C 9.269531 -10.351562 9.734375 -8.8125 10.734375 -7.65625 C 11.742188 -6.507812 13.117188 -5.914062 14.859375 -5.875 C 17.679688 -5.800781 20.15625 -6.894531 22.28125 -9.15625 L 25.828125 -4.75 C 24.710938 -3.0625 23.097656 -1.742188 20.984375 -0.796875 C 18.878906 0.140625 16.617188 0.585938 14.203125 0.546875 Z M 16.671875 -23.875 C 15.242188 -23.90625 13.972656 -23.453125 12.859375 -22.515625 C 11.753906 -21.585938 10.765625 -19.972656 9.890625 -17.671875 L 20.546875 -17.671875 L 20.71875 -18.375 C 20.820312 -19.113281 20.832031 -19.8125 20.75 -20.46875 C 20.5625 -21.53125 20.109375 -22.359375 19.390625 -22.953125 C 18.679688 -23.546875 17.773438 -23.851562 16.671875 -23.875 Z M 16.671875 -23.875 "/></g></g></g><g fill="#0368fe" fill-opacity="1"><g transform="translate(258.144864, 49.929894)"><g><path d="M 20.4375 -22.28125 C 19.375 -22.46875 18.503906 -22.5625 17.828125 -22.5625 C 15.066406 -22.632812 12.878906 -21.597656 11.265625 -19.453125 L 7.828125 0 L 0.078125 0 L 5.25 -29.71875 L 12.53125 -29.75 L 11.8125 -26.125 C 13.675781 -28.925781 15.984375 -30.328125 18.734375 -30.328125 C 19.503906 -30.328125 20.398438 -30.203125 21.421875 -29.953125 Z M 20.4375 -22.28125 "/></g></g></g><g fill="#0368fe" fill-opacity="1"><g transform="translate(275.689836, 49.929894)"><g><path d="M 14.203125 0.546875 C 11.597656 0.523438 9.289062 -0.109375 7.28125 -1.359375 C 5.28125 -2.609375 3.785156 -4.328125 2.796875 -6.515625 C 1.804688 -8.710938 1.421875 -11.128906 1.640625 -13.765625 L 1.734375 -14.859375 C 2.003906 -17.753906 2.84375 -20.410156 4.25 -22.828125 C 5.664062 -25.242188 7.476562 -27.109375 9.6875 -28.421875 C 11.90625 -29.734375 14.363281 -30.351562 17.0625 -30.28125 C 20.882812 -30.207031 23.78125 -28.800781 25.75 -26.0625 C 27.71875 -23.320312 28.46875 -19.851562 28 -15.65625 L 27.5625 -12.28125 L 9.34375 -12.28125 C 9.269531 -10.351562 9.734375 -8.8125 10.734375 -7.65625 C 11.742188 -6.507812 13.117188 -5.914062 14.859375 -5.875 C 17.679688 -5.800781 20.15625 -6.894531 22.28125 -9.15625 L 25.828125 -4.75 C 24.710938 -3.0625 23.097656 -1.742188 20.984375 -0.796875 C 18.878906 0.140625 16.617188 0.585938 14.203125 0.546875 Z M 16.671875 -23.875 C 15.242188 -23.90625 13.972656 -23.453125 12.859375 -22.515625 C 11.753906 -21.585938 10.765625 -19.972656 9.890625 -17.671875 L 20.546875 -17.671875 L 20.71875 -18.375 C 20.820312 -19.113281 20.832031 -19.8125 20.75 -20.46875 C 20.5625 -21.53125 20.109375 -22.359375 19.390625 -22.953125 C 18.679688 -23.546875 17.773438 -23.851562 16.671875 -23.875 Z M 16.671875 -23.875 "/></g></g></g><g fill="#0368fe" fill-opacity="1"><g transform="translate(302.821488, 49.929894)"><g><path d="M 14.828125 -30.296875 C 17.597656 -30.222656 19.835938 -29.117188 21.546875 -26.984375 L 24.453125 -42.203125 L 32.21875 -42.203125 L 24.921875 0 L 18 0 L 18.4375 -3.1875 C 16.21875 -0.601562 13.632812 0.648438 10.6875 0.578125 C 8.832031 0.554688 7.207031 0.0703125 5.8125 -0.875 C 4.425781 -1.832031 3.351562 -3.203125 2.59375 -4.984375 C 1.832031 -6.773438 1.414062 -8.769531 1.34375 -10.96875 C 1.289062 -12.113281 1.316406 -13.226562 1.421875 -14.3125 L 1.59375 -15.546875 C 2.03125 -18.585938 2.875 -21.257812 4.125 -23.5625 C 5.382812 -25.875 6.925781 -27.585938 8.75 -28.703125 C 10.570312 -29.828125 12.597656 -30.359375 14.828125 -30.296875 Z M 9.203125 -14.3125 C 9.054688 -12.914062 9.007812 -11.742188 9.0625 -10.796875 C 9.25 -7.578125 10.550781 -5.9375 12.96875 -5.875 C 15.144531 -5.78125 17.039062 -6.804688 18.65625 -8.953125 L 20.765625 -20.765625 C 20.054688 -22.722656 18.628906 -23.75 16.484375 -23.84375 C 14.597656 -23.894531 13.023438 -23.164062 11.765625 -21.65625 C 10.515625 -20.144531 9.660156 -17.695312 9.203125 -14.3125 Z M 9.203125 -14.3125 "/></g></g></g><g clip-path="url(#a11c706a38)"><path fill="#0368fe" d="M 338.175781 88.445312 C 320.914062 86.132812 303.191406 86.496094 285.683594 87.0625 C 268.378906 87.625 251.082031 88.300781 233.804688 89.121094 C 216.546875 89.941406 199.304688 90.921875 182.125 92.261719 C 164.734375 93.617188 147.425781 95.324219 130.230469 97.488281 C 112.480469 99.71875 94.882812 102.609375 77.476562 105.753906 C 75.105469 106.183594 72.714844 106.574219 70.351562 107.019531 C 69.785156 107.125 71.296875 107.59375 71.71875 107.523438 C 74.148438 107.109375 76.554688 106.636719 78.964844 106.175781 C 93.121094 103.644531 107.472656 101.652344 121.964844 100.011719 C 139.214844 98.066406 156.648438 96.589844 174.054688 95.351562 C 191.527344 94.113281 209.050781 93.160156 226.585938 92.386719 C 244.027344 91.617188 261.484375 91.027344 278.945312 90.484375 C 294.804688 89.988281 310.757812 89.382812 326.570312 90.492188 C 325.558594 90.664062 324.546875 90.839844 323.535156 91.015625 C 317.464844 92.09375 311.109375 92.691406 304.878906 93.242188 C 293.898438 94.214844 282.851562 94.929688 271.8125 95.578125 C 271.613281 95.589844 272.152344 96.066406 272.4375 96.054688 C 283.070312 95.550781 293.660156 94.78125 304.222656 93.859375 C 309.621094 93.390625 315.089844 92.851562 320.53125 92.640625 C 323.179688 92.539062 325.824219 92.425781 328.457031 92.234375 C 329.917969 92.125 331.375 92.015625 332.832031 91.898438 C 334.523438 91.761719 336.246094 91.785156 337.929688 91.605469 C 339.1875 91.472656 339.445312 88.613281 338.175781 88.445312 " fill-opacity="1" fill-rule="nonzero"/></g><g fill="#ffffff" fill-opacity="1"><g transform="translate(61.87366, 96.983347)"><g><path d="M 16.640625 -10 L 30.109375 -39.984375 L 39.328125 -39.984375 L 19.578125 0 L 11.171875 0 L 3.984375 -39.984375 L 12.640625 -39.984375 Z M 16.640625 -10 "/></g></g></g><g fill="#ffffff" fill-opacity="1"><g transform="translate(95.179701, 96.983347)"><g><path d="M 17.078125 -30.265625 C 19.703125 -30.234375 21.960938 -29.5625 23.859375 -28.25 C 25.753906 -26.9375 27.144531 -25.128906 28.03125 -22.828125 C 28.914062 -20.535156 29.226562 -17.988281 28.96875 -15.1875 C 28.550781 -10.46875 26.910156 -6.644531 24.046875 -3.71875 C 21.179688 -0.800781 17.644531 0.617188 13.4375 0.546875 C 10.851562 0.515625 8.617188 -0.144531 6.734375 -1.4375 C 4.847656 -2.726562 3.453125 -4.519531 2.546875 -6.8125 C 1.648438 -9.101562 1.332031 -11.628906 1.59375 -14.390625 C 2.070312 -19.296875 3.738281 -23.195312 6.59375 -26.09375 C 9.445312 -28.988281 12.941406 -30.378906 17.078125 -30.265625 Z M 9.25 -11.5625 C 9.289062 -9.800781 9.703125 -8.410156 10.484375 -7.390625 C 11.273438 -6.378906 12.382812 -5.859375 13.8125 -5.828125 C 16.195312 -5.753906 18.066406 -6.847656 19.421875 -9.109375 C 20.773438 -11.367188 21.40625 -14.335938 21.3125 -18.015625 C 21.238281 -19.773438 20.8125 -21.179688 20.03125 -22.234375 C 19.257812 -23.285156 18.148438 -23.832031 16.703125 -23.875 C 14.390625 -23.945312 12.539062 -22.859375 11.15625 -20.609375 C 9.78125 -18.367188 9.144531 -15.351562 9.25 -11.5625 Z M 9.25 -11.5625 "/></g></g></g><g fill="#ffffff" fill-opacity="1"><g transform="translate(123.652092, 96.983347)"><g><path d="M 8.265625 0 L 0.46875 0 L 5.625 -29.71875 L 13.4375 -29.71875 Z M 6.53125 -37.265625 C 6.5 -38.492188 6.90625 -39.507812 7.75 -40.3125 C 8.59375 -41.125 9.609375 -41.53125 10.796875 -41.53125 C 11.960938 -41.5625 12.976562 -41.203125 13.84375 -40.453125 C 14.707031 -39.703125 15.15625 -38.734375 15.1875 -37.546875 C 15.226562 -36.410156 14.847656 -35.421875 14.046875 -34.578125 C 13.253906 -33.734375 12.21875 -33.296875 10.9375 -33.265625 C 9.78125 -33.222656 8.765625 -33.566406 7.890625 -34.296875 C 7.023438 -35.035156 6.570312 -36.023438 6.53125 -37.265625 Z M 6.53125 -37.265625 "/></g></g></g><g fill="#ffffff" fill-opacity="1"><g transform="translate(135.755985, 96.983347)"><g><path d="M 13.09375 -5.828125 C 14.53125 -5.785156 15.722656 -6.171875 16.671875 -6.984375 C 17.617188 -7.804688 18.242188 -8.894531 18.546875 -10.25 L 25.8125 -10.265625 C 25.6875 -8.179688 25.03125 -6.304688 23.84375 -4.640625 C 22.664062 -2.972656 21.09375 -1.671875 19.125 -0.734375 C 17.15625 0.191406 15.082031 0.628906 12.90625 0.578125 C 9.300781 0.523438 6.445312 -0.71875 4.34375 -3.15625 C 2.238281 -5.59375 1.222656 -8.832031 1.296875 -12.875 L 1.375 -14.390625 L 1.40625 -14.6875 C 1.894531 -19.519531 3.519531 -23.351562 6.28125 -26.1875 C 9.050781 -29.019531 12.46875 -30.378906 16.53125 -30.265625 C 19.882812 -30.191406 22.546875 -29.097656 24.515625 -26.984375 C 26.484375 -24.867188 27.445312 -22.082031 27.40625 -18.625 L 20.1875 -18.625 C 20.1875 -20.21875 19.835938 -21.472656 19.140625 -22.390625 C 18.441406 -23.304688 17.398438 -23.800781 16.015625 -23.875 C 12.316406 -23.976562 10.070312 -21.273438 9.28125 -15.765625 C 9.007812 -13.765625 8.910156 -12.082031 8.984375 -10.71875 C 9.160156 -7.507812 10.53125 -5.878906 13.09375 -5.828125 Z M 13.09375 -5.828125 "/></g></g></g><g fill="#ffffff" fill-opacity="1"><g transform="translate(161.839012, 96.983347)"><g><path d="M 14.203125 0.546875 C 11.597656 0.523438 9.289062 -0.109375 7.28125 -1.359375 C 5.28125 -2.609375 3.785156 -4.328125 2.796875 -6.515625 C 1.804688 -8.710938 1.421875 -11.128906 1.640625 -13.765625 L 1.734375 -14.859375 C 2.003906 -17.753906 2.84375 -20.410156 4.25 -22.828125 C 5.664062 -25.242188 7.476562 -27.101562 9.6875 -28.40625 C 11.90625 -29.71875 14.363281 -30.335938 17.0625 -30.265625 C 20.882812 -30.191406 23.78125 -28.785156 25.75 -26.046875 C 27.71875 -23.304688 28.460938 -19.84375 27.984375 -15.65625 L 27.546875 -12.28125 L 9.34375 -12.28125 C 9.269531 -10.351562 9.734375 -8.8125 10.734375 -7.65625 C 11.742188 -6.507812 13.117188 -5.914062 14.859375 -5.875 C 17.679688 -5.800781 20.15625 -6.890625 22.28125 -9.140625 L 25.8125 -4.75 C 24.695312 -3.0625 23.085938 -1.742188 20.984375 -0.796875 C 18.878906 0.140625 16.617188 0.585938 14.203125 0.546875 Z M 16.671875 -23.875 C 15.242188 -23.90625 13.972656 -23.453125 12.859375 -22.515625 C 11.753906 -21.585938 10.765625 -19.96875 9.890625 -17.65625 L 20.546875 -17.65625 L 20.703125 -18.375 C 20.816406 -19.101562 20.828125 -19.800781 20.734375 -20.46875 C 20.554688 -21.53125 20.109375 -22.359375 19.390625 -22.953125 C 18.671875 -23.546875 17.765625 -23.851562 16.671875 -23.875 Z M 16.671875 -23.875 "/></g></g></g></svg>