<svg xmlns="http://www.w3.org/2000/svg" xmlns:xlink="http://www.w3.org/1999/xlink" width="1920" zoomAndPan="magnify" viewBox="0 0 1440 809.999993" height="1080" preserveAspectRatio="xMidYMid meet" version="1.0"><rect x="-144" width="1728" fill="#ffffff" y="-80.999999" height="971.999992" fill-opacity="1"/><rect x="-144" width="1728" fill="#002566" y="-80.999999" height="971.999992" fill-opacity="1"/><path fill="#ffffff" d="M 1585.953125 -30.3125 C 1383.667969 -30.3125 1182.382812 6.617188 991.746094 79.480469 C 979.765625 84.136719 968.121094 88.796875 956.144531 93.453125 C 856 132.710938 752.53125 173.636719 651.390625 145.023438 C 619.78125 136.039062 588.507812 120.402344 558.230469 105.097656 C 500.675781 75.820312 446.445312 48.207031 386.890625 63.175781 C 327.667969 77.816406 289.410156 130.050781 252.480469 180.289062 L 246.488281 188.273438 C 213.886719 232.523438 162.316406 291.746094 95.777344 289.75 C 57.515625 288.417969 22.914062 266.125 -3.035156 247.164062 C -68.914062 198.253906 -123.476562 137.371094 -165.0625 66.503906 L -167.058594 67.835938 C -125.472656 139.035156 -70.574219 199.917969 -4.367188 249.160156 C 21.914062 268.457031 56.847656 290.746094 95.777344 292.078125 C 163.648438 294.074219 215.882812 234.519531 249.152344 189.273438 L 255.140625 181.285156 C 291.738281 131.382812 330 79.8125 388.222656 65.171875 C 446.777344 50.535156 500.675781 77.816406 557.566406 106.761719 C 587.84375 122.066406 619.117188 138.035156 651.058594 147.019531 C 752.863281 175.632812 856.667969 135.042969 957.144531 95.449219 C 969.121094 90.792969 981.097656 86.132812 992.742188 81.476562 C 1276.207031 -26.984375 1583.957031 -55.597656 1882.722656 -1.367188 L 1883.054688 -3.695312 C 1784.574219 -21.328125 1685.097656 -30.3125 1585.953125 -30.3125 Z M 1883.386719 -16.003906 L 1883.054688 -13.675781 C 1660.144531 -57.59375 1434.90625 -54.933594 1212.992188 -6.355469 C 1142.792969 8.945312 1073.257812 29.242188 1005.71875 53.527344 C 992.410156 58.519531 978.4375 63.511719 965.128906 68.5 C 919.878906 85.46875 873.300781 102.769531 826.722656 114.082031 C 765.507812 129.050781 715.269531 130.714844 668.691406 119.738281 C 644.734375 113.414062 620.78125 105.097656 598.488281 94.453125 C 589.839844 90.460938 580.855469 86.464844 572.539062 82.472656 C 517.308594 56.855469 465.074219 32.570312 408.515625 44.878906 C 352.289062 57.1875 313.695312 102.4375 276.433594 146.351562 C 273.4375 149.679688 270.777344 153.007812 267.78125 156.335938 C 228.523438 202.246094 175.292969 254.8125 109.417969 255.480469 C 109.082031 255.480469 108.75 255.480469 108.085938 255.480469 C 69.160156 255.480469 33.894531 236.515625 7.609375 220.214844 L 1.621094 216.222656 C -64.917969 173.300781 -121.148438 118.40625 -165.394531 52.53125 L -163.398438 51.199219 C -119.484375 116.742188 -63.589844 171.636719 2.953125 214.226562 L 8.941406 217.882812 C 35.554688 234.519531 70.824219 253.152344 109.417969 252.816406 C 174.292969 252.152344 227.191406 199.917969 266.121094 154.671875 C 269.113281 151.34375 271.777344 148.015625 274.769531 144.691406 C 312.367188 100.441406 351.292969 54.859375 408.183594 42.550781 C 465.410156 30.238281 520.636719 55.859375 573.871094 80.476562 C 582.519531 84.46875 591.171875 88.464844 599.820312 92.457031 C 622.113281 102.769531 645.734375 111.417969 669.6875 117.40625 C 715.933594 128.386719 765.507812 126.722656 826.390625 111.753906 C 872.636719 100.441406 919.214844 83.140625 964.460938 66.171875 C 977.769531 61.179688 991.746094 55.859375 1005.050781 51.199219 C 1072.589844 26.914062 1142.457031 6.617188 1212.660156 -8.6875 C 1329.4375 -34.304688 1447.214844 -46.945312 1565.324219 -46.945312 C 1671.125 -46.945312 1777.589844 -36.632812 1883.386719 -16.003906 Z M 1883.386719 -27.984375 L 1882.722656 -25.652344 C 1664.136719 -71.898438 1442.222656 -73.230469 1222.972656 -29.3125 C 1153.769531 -15.339844 1084.902344 2.957031 1018.027344 25.25 C 1002.722656 30.574219 986.753906 35.894531 971.449219 41.550781 C 928.863281 56.523438 884.945312 72.160156 841.03125 83.140625 C 780.476562 98.109375 730.90625 101.105469 685.65625 92.457031 C 662.035156 87.464844 638.414062 80.144531 616.121094 70.828125 C 605.808594 66.835938 595.496094 62.511719 585.515625 58.1875 C 532.28125 35.894531 481.710938 14.9375 427.8125 24.582031 C 372.585938 34.566406 332.992188 74.820312 294.730469 113.75 C 291.40625 117.074219 288.410156 120.070312 285.082031 123.398438 C 240.5 168.976562 185.9375 215.554688 122.058594 218.882812 C 82.136719 220.878906 45.539062 205.242188 18.257812 190.933594 L 11.933594 187.609375 C -56.933594 151.011719 -118.152344 99.109375 -165.0625 36.894531 L -163.066406 35.230469 C -116.15625 97.113281 -55.269531 148.683594 12.933594 184.945312 L 19.253906 188.273438 C 46.203125 202.246094 82.46875 217.882812 121.726562 215.886719 C 184.605469 212.5625 238.835938 166.316406 283.421875 121.402344 C 286.746094 118.074219 289.742188 115.078125 293.066406 111.753906 C 331.660156 72.492188 371.585938 32.234375 427.480469 21.921875 C 482.375 11.941406 535.277344 34.230469 586.511719 55.527344 C 596.492188 59.851562 606.808594 64.175781 617.121094 68.167969 C 639.410156 77.484375 662.699219 84.46875 686.324219 89.460938 C 731.238281 98.113281 780.144531 95.117188 840.363281 80.144531 C 883.949219 69.167969 927.867188 53.863281 970.453125 38.890625 C 985.753906 33.566406 1001.726562 27.910156 1017.03125 22.585938 C 1083.902344 -0.0351562 1153.105469 -18.335938 1222.308594 -32.308594 C 1329.105469 -53.601562 1436.234375 -64.246094 1543.699219 -64.246094 C 1657.484375 -63.914062 1770.933594 -51.9375 1883.386719 -27.984375 Z M 1883.386719 -40.625 L 1882.722656 -38.296875 C 1674.117188 -86.871094 1443.554688 -92.195312 1233.621094 -52.9375 C 1165.414062 -40.625 1097.210938 -23.65625 1030.671875 -3.03125 C 1012.371094 2.625 993.40625 8.945312 975.109375 15.269531 C 936.183594 28.242188 895.59375 41.550781 855.667969 51.867188 C 794.453125 67.503906 747.539062 71.496094 703.289062 64.839844 C 680 61.179688 656.710938 55.191406 634.421875 47.207031 C 622.445312 43.214844 610.46875 38.558594 598.824219 34.234375 C 549.914062 15.933594 499.675781 -3.03125 448.109375 4.621094 C 393.878906 12.605469 353.289062 47.875 314.027344 81.808594 C 310.367188 84.804688 307.042969 87.796875 303.382812 90.792969 C 281.089844 109.757812 255.140625 131.714844 226.195312 149.347656 C 194.253906 168.976562 164.3125 179.625 134.703125 182.617188 C 94.445312 186.609375 57.183594 173.96875 29.234375 162.65625 C 26.90625 161.65625 24.910156 160.992188 22.914062 159.992188 C -48.617188 129.386719 -113.496094 81.808594 -164.066406 22.585938 L -162.070312 20.925781 C -111.5 79.8125 -47.285156 127.054688 23.910156 157.664062 C 25.90625 158.664062 28.238281 159.328125 30.234375 160.328125 C 57.847656 171.640625 94.445312 183.949219 134.371094 180.289062 C 167.640625 177.292969 210.558594 167.3125 301.386719 89.128906 C 305.046875 86.132812 308.371094 83.140625 312.03125 80.144531 C 351.625 45.878906 392.214844 10.609375 447.441406 2.292969 C 499.675781 -5.359375 550.246094 13.605469 599.488281 31.902344 C 611.132812 36.230469 623.109375 40.886719 635.085938 44.878906 C 657.378906 52.863281 680.335938 58.851562 703.625 62.511719 C 747.539062 69.167969 794.117188 65.175781 855.003906 49.535156 C 894.925781 39.554688 935.183594 25.914062 974.109375 12.941406 C 992.410156 6.949219 1011.375 0.628906 1029.671875 -5.359375 C 1095.878906 -25.988281 1164.417969 -42.953125 1232.621094 -55.265625 C 1325.777344 -72.566406 1422.925781 -81.214844 1520.742188 -81.214844 C 1643.84375 -81.546875 1766.941406 -67.90625 1883.386719 -40.625 Z M 1883.386719 -52.601562 L 1882.722656 -50.273438 C 1678.109375 -101.84375 1451.207031 -110.824219 1243.933594 -75.890625 C 1176.394531 -64.914062 1109.1875 -49.941406 1043.3125 -30.976562 C 1021.023438 -24.65625 998.066406 -17.335938 976.105469 -10.351562 C 941.507812 0.628906 905.574219 11.609375 870.640625 20.925781 C 829.71875 31.570312 775.488281 43.214844 720.925781 37.558594 C 697.96875 34.898438 675.011719 30.238281 652.71875 23.585938 C 638.414062 19.59375 624.109375 14.601562 610.132812 10.277344 C 564.222656 -5.027344 516.3125 -20.664062 468.070312 -15.339844 C 413.839844 -9.351562 371.585938 21.589844 330.664062 51.53125 C 327.667969 53.863281 324.675781 56.191406 321.347656 58.1875 L 319.019531 59.851562 C 269.113281 96.449219 212.554688 137.703125 147.675781 146.351562 C 115.40625 150.679688 82.136719 146.6875 40.546875 133.710938 L 33.894531 131.714844 C -40.632812 107.09375 -108.835938 64.175781 -163.066406 7.617188 L -161.402344 5.953125 C -107.171875 62.179688 -39.632812 104.765625 34.558594 129.386719 L 41.210938 131.382812 C 82.46875 144.355469 115.40625 148.015625 147.34375 144.023438 C 211.554688 135.375 267.78125 94.453125 317.355469 58.1875 L 319.683594 56.523438 C 322.679688 54.195312 325.671875 52.199219 329 49.871094 C 369.921875 19.59375 412.507812 -11.347656 467.40625 -17.335938 C 516.3125 -22.660156 564.222656 -6.691406 610.46875 8.613281 C 624.441406 13.273438 638.746094 17.929688 652.71875 21.921875 C 674.679688 28.578125 697.636719 33.234375 720.589844 35.894531 C 774.820312 41.550781 828.71875 29.90625 869.308594 19.261719 C 904.574219 10.277344 940.175781 -1.035156 974.777344 -11.679688 C 996.734375 -18.667969 1019.691406 -25.652344 1041.984375 -32.308594 C 1107.859375 -51.273438 1175.394531 -66.242188 1242.933594 -77.222656 C 1325.777344 -91.195312 1411.949219 -98.183594 1498.449219 -98.183594 C 1629.203125 -99.179688 1760.289062 -83.542969 1883.386719 -52.601562 Z M 1883.054688 -64.914062 L 1882.390625 -62.585938 C 1685.761719 -115.816406 1456.863281 -129.125 1254.246094 -99.179688 C 1187.707031 -89.867188 1121.164062 -76.226562 1055.957031 -59.257812 C 1028.007812 -51.9375 999.730469 -43.289062 972.113281 -35.300781 C 943.503906 -26.984375 914.222656 -18.335938 885.277344 -10.683594 C 841.695312 0.960938 790.125 12.273438 738.558594 9.613281 C 715.933594 8.28125 692.976562 4.953125 671.019531 -0.703125 C 654.382812 -4.695312 637.75 -9.351562 621.445312 -14.34375 C 578.195312 -26.984375 533.613281 -39.628906 488.363281 -36.632812 C 433.136719 -32.640625 390.550781 -6.691406 345.636719 20.925781 L 340.3125 24.25 C 334.324219 27.910156 328.335938 31.570312 322.347656 35.230469 C 274.4375 64.839844 220.539062 98.445312 161.652344 108.425781 C 128.714844 114.082031 94.113281 112.417969 52.855469 103.433594 L 50.527344 102.769531 C 48.863281 102.4375 47.535156 102.105469 45.871094 101.769531 C -31.980469 83.804688 -103.511719 45.542969 -161.734375 -8.355469 L -160.074219 -10.351562 C -102.183594 43.214844 -30.984375 81.476562 45.871094 99.773438 C 47.535156 100.109375 48.863281 100.441406 50.527344 100.773438 L 52.855469 101.4375 C 94.113281 110.421875 128.378906 112.085938 160.984375 106.429688 C 219.207031 96.449219 273.105469 62.84375 320.683594 33.566406 C 326.671875 29.90625 332.660156 26.246094 338.648438 22.585938 L 343.972656 19.261719 C 387.222656 -7.355469 432.136719 -34.636719 488.03125 -38.628906 C 533.613281 -41.957031 578.527344 -28.980469 621.777344 -16.339844 C 638.082031 -11.679688 654.714844 -6.691406 671.351562 -2.699219 C 693.308594 2.625 715.933594 5.953125 738.558594 7.285156 C 789.792969 9.945312 841.03125 -1.367188 884.613281 -13.011719 C 913.558594 -20.664062 942.835938 -29.3125 971.449219 -37.632812 C 999.0625 -45.617188 1027.675781 -54.265625 1055.289062 -61.585938 C 1120.5 -78.554688 1187.039062 -92.195312 1253.914062 -101.511719 C 1325.113281 -112.15625 1399.636719 -117.148438 1474.828125 -117.148438 C 1613.898438 -117.480469 1755.296875 -99.515625 1883.054688 -64.914062 Z M 1883.386719 -77.222656 L 1882.722656 -74.894531 C 1691.085938 -130.789062 1465.847656 -148.089844 1264.894531 -122.46875 C 1199.019531 -114.484375 1133.144531 -102.839844 1068.597656 -87.535156 C 1032.335938 -78.886719 995.070312 -68.238281 959.140625 -58.257812 C 939.511719 -52.9375 919.546875 -47.28125 899.917969 -41.957031 C 857 -30.3125 806.761719 -18 756.855469 -18 C 756.523438 -18 756.191406 -18 755.859375 -18 C 733.566406 -18 710.941406 -20.332031 688.984375 -24.324219 C 669.355469 -27.984375 649.394531 -32.972656 630.097656 -37.632812 C 590.503906 -47.613281 549.25 -57.925781 507.996094 -56.59375 C 450.105469 -54.933594 403.191406 -31.308594 357.613281 -8.355469 C 345.304688 -2.363281 333.324219 4.289062 320.351562 11.277344 C 274.105469 35.894531 226.195312 61.515625 174.292969 72.492188 C 140.023438 79.8125 104.757812 80.476562 63.503906 74.820312 C 61.175781 74.488281 58.847656 74.15625 56.515625 73.824219 C -23.332031 61.515625 -98.191406 27.578125 -160.40625 -23.65625 L -158.742188 -25.652344 C -96.859375 25.582031 -22.332031 59.183594 57.183594 71.496094 C 59.511719 71.828125 61.839844 72.160156 64.167969 72.492188 C 105.089844 78.148438 140.023438 77.152344 173.960938 70.164062 C 225.53125 59.183594 273.4375 33.898438 319.351562 9.28125 C 332.328125 2.292969 344.636719 -4.027344 356.949219 -10.351562 C 402.527344 -33.304688 449.773438 -56.929688 508.328125 -58.925781 C 549.914062 -60.253906 591.171875 -49.941406 631.09375 -39.960938 C 650.390625 -35.300781 670.019531 -30.3125 689.648438 -26.652344 C 711.609375 -22.660156 733.898438 -20.332031 756.191406 -20.332031 C 756.523438 -20.332031 756.855469 -20.332031 757.1875 -20.332031 C 806.761719 -20.332031 856.667969 -32.640625 899.585938 -44.285156 C 919.214844 -49.609375 939.511719 -55.265625 958.808594 -60.589844 C 994.738281 -70.570312 1032 -81.214844 1068.265625 -89.867188 C 1132.808594 -105.171875 1199.019531 -116.816406 1264.5625 -124.800781 C 1325.445312 -132.453125 1388.660156 -136.445312 1452.539062 -136.445312 C 1599.59375 -136.445312 1749.640625 -116.148438 1883.386719 -77.222656 Z M 1883.386719 -89.53125 L 1882.722656 -87.203125 C 1698.738281 -144.761719 1471.5 -166.71875 1275.207031 -145.761719 C 1210.328125 -139.4375 1145.121094 -129.125 1081.574219 -115.816406 C 1029.007812 -104.503906 975.441406 -89.867188 923.539062 -75.558594 L 914.890625 -73.230469 C 864.652344 -59.589844 819.402344 -47.945312 773.492188 -45.617188 C 751.53125 -44.617188 729.242188 -45.617188 707.285156 -48.277344 C 683.992188 -51.273438 660.039062 -56.261719 637.414062 -61.253906 C 601.816406 -68.90625 565.21875 -76.890625 528.289062 -77.222656 C 470.398438 -77.886719 421.492188 -59.921875 376.242188 -41.625 C 356.28125 -33.640625 336.320312 -24.324219 315.027344 -14.34375 C 274.105469 4.621094 231.851562 24.582031 187.601562 35.5625 C 150.671875 44.546875 113.074219 47.875 75.148438 45.542969 C 72.820312 45.542969 70.15625 45.210938 67.828125 45.210938 C -14.347656 38.890625 -92.867188 9.945312 -159.40625 -38.960938 L -158.078125 -40.957031 C -92.203125 7.617188 -14.015625 36.894531 67.828125 42.882812 C 70.15625 43.214844 72.820312 43.214844 75.148438 43.214844 C 112.742188 45.542969 150.339844 42.21875 186.9375 33.234375 C 231.1875 22.253906 273.105469 2.625 314.027344 -16.339844 C 335.320312 -26.320312 355.285156 -35.636719 375.246094 -43.621094 C 420.828125 -61.917969 470.066406 -79.882812 528.289062 -79.21875 C 565.21875 -78.886719 602.148438 -70.902344 637.75 -63.25 C 660.703125 -58.257812 684.328125 -53.269531 707.617188 -50.273438 C 729.242188 -47.28125 751.53125 -46.613281 773.492188 -47.613281 C 819.070312 -49.941406 863.988281 -61.253906 914.222656 -75.226562 L 922.875 -77.554688 C 974.777344 -91.863281 1028.339844 -106.5 1080.910156 -117.8125 C 1144.789062 -131.121094 1209.996094 -141.433594 1274.875 -147.757812 C 1324.113281 -153.078125 1375.019531 -155.742188 1426.917969 -155.742188 C 1582.625 -156.074219 1744.984375 -132.785156 1883.386719 -89.53125 Z M 1883.386719 -101.84375 L 1882.722656 -99.515625 C 1703.0625 -160.066406 1479.820312 -186.015625 1285.855469 -169.050781 C 1221.972656 -164.058594 1157.429688 -155.742188 1094.214844 -144.097656 C 1045.640625 -134.78125 993.40625 -122.136719 929.527344 -104.171875 L 919.546875 -101.511719 C 877.628906 -89.53125 834.042969 -77.554688 791.125 -73.230469 C 769.5 -70.902344 747.207031 -70.570312 725.582031 -72.234375 C 697.636719 -74.230469 669.355469 -79.550781 641.742188 -84.542969 C 611.132812 -90.199219 579.527344 -95.855469 548.25 -97.519531 C 486.703125 -100.511719 433.46875 -86.871094 394.210938 -74.5625 C 364.597656 -65.246094 335.652344 -53.269531 305.046875 -40.292969 C 271.109375 -25.988281 236.175781 -11.347656 200.578125 -1.035156 C 163.3125 9.945312 125.054688 15.601562 86.128906 16.597656 L 78.476562 16.597656 C 78.476562 16.597656 78.140625 16.597656 78.140625 16.597656 C -6.363281 16.597656 -88.210938 -8.019531 -158.742188 -54.597656 L -157.410156 -56.59375 C -87.210938 -10.351562 -6.03125 14.269531 77.808594 14.269531 C 77.808594 14.269531 78.140625 14.269531 78.140625 14.269531 L 86.128906 14.269531 C 124.722656 13.273438 162.980469 7.617188 199.910156 -3.363281 C 235.511719 -13.675781 270.445312 -28.316406 304.046875 -42.289062 C 334.65625 -55.265625 363.933594 -67.242188 393.542969 -76.558594 C 433.136719 -88.867188 486.367188 -102.507812 548.585938 -99.515625 C 580.191406 -97.851562 611.796875 -92.195312 642.40625 -86.539062 C 669.6875 -81.546875 697.96875 -76.226562 725.914062 -74.230469 C 747.539062 -72.566406 769.5 -72.898438 791.125 -75.226562 C 834.042969 -79.550781 877.292969 -91.863281 919.214844 -103.507812 L 929.195312 -106.167969 C 993.074219 -124.132812 1045.308594 -136.777344 1094.214844 -146.09375 C 1157.429688 -157.738281 1221.972656 -166.054688 1285.855469 -171.046875 C 1325.113281 -174.371094 1365.371094 -176.035156 1406.292969 -176.035156 C 1567.984375 -176.367188 1739.660156 -150.085938 1883.386719 -101.84375 Z M 1883.386719 -114.152344 L 1882.390625 -111.824219 C 1710.382812 -173.707031 1485.808594 -204.648438 1295.835938 -192.339844 C 1232.621094 -189.011719 1169.074219 -182.023438 1106.527344 -172.375 C 1051.964844 -163.394531 997.066406 -150.75 943.835938 -135.445312 C 934.519531 -132.785156 925.203125 -130.121094 916.222656 -127.460938 C 880.953125 -117.148438 844.691406 -106.167969 808.425781 -100.84375 C 787.132812 -97.519531 765.175781 -95.855469 743.546875 -96.1875 C 708.945312 -96.851562 674.347656 -102.507812 640.742188 -107.832031 C 617.121094 -111.824219 592.5 -115.816406 568.214844 -117.8125 C 515.980469 -122.804688 463.414062 -119.476562 412.175781 -107.5 C 371.585938 -98.183594 330.996094 -82.214844 291.40625 -66.578125 C 266.121094 -56.59375 239.835938 -46.28125 213.550781 -37.632812 C 175.957031 -24.988281 137.03125 -16.671875 97.4375 -12.347656 C 94.777344 -12.011719 92.449219 -12.011719 89.789062 -11.679688 C 2.953125 -5.359375 -82.554688 -25.320312 -157.410156 -69.570312 L -156.082031 -71.566406 C -81.554688 -27.648438 3.285156 -7.6875 89.789062 -14.007812 C 92.449219 -14.34375 94.777344 -14.34375 97.4375 -14.675781 C 136.699219 -18.667969 175.625 -26.984375 212.886719 -39.628906 C 239.171875 -48.277344 265.121094 -58.589844 290.738281 -68.574219 C 330.332031 -84.210938 371.253906 -100.179688 411.84375 -109.496094 C 463.414062 -121.472656 515.980469 -124.800781 568.546875 -119.808594 C 592.832031 -117.480469 617.453125 -113.488281 641.074219 -109.828125 C 674.679688 -104.171875 709.28125 -98.515625 743.546875 -98.183594 C 765.175781 -97.851562 786.800781 -99.515625 808.09375 -102.839844 C 844.023438 -108.496094 880.621094 -119.144531 915.554688 -129.457031 C 924.871094 -132.117188 934.1875 -134.78125 943.503906 -137.441406 C 996.734375 -152.746094 1051.632812 -165.390625 1106.527344 -174.371094 C 1169.074219 -184.019531 1232.953125 -191.007812 1296.167969 -194.335938 C 1324.113281 -195.996094 1352.726562 -196.996094 1381.671875 -196.996094 C 1551.019531 -197.328125 1736.332031 -167.054688 1883.386719 -114.152344 Z M 1883.386719 -126.464844 L 1882.390625 -124.132812 C 1718.699219 -187.347656 1492.460938 -223.28125 1306.480469 -215.628906 C 1254.578125 -213.632812 1186.375 -209.972656 1119.503906 -200.65625 C 1065.273438 -193.335938 1011.375 -182.023438 959.140625 -166.71875 C 944.832031 -162.394531 930.195312 -158.070312 916.222656 -153.410156 C 886.941406 -144.097656 856.335938 -134.449219 826.058594 -128.125 C 805.097656 -123.46875 783.472656 -120.808594 761.847656 -119.476562 C 718.59375 -117.8125 674.347656 -124.464844 632.09375 -131.453125 C 617.785156 -133.78125 602.816406 -136.113281 588.507812 -138.109375 C 525.628906 -146.757812 476.71875 -147.421875 430.476562 -140.4375 C 377.574219 -132.785156 325.671875 -112.488281 275.433594 -92.859375 C 259.464844 -86.539062 243.164062 -80.21875 226.859375 -74.230469 C 181.945312 -57.925781 144.683594 -47.613281 109.082031 -41.625 L 101.097656 -40.292969 C 11.933594 -27.648438 -76.898438 -43.289062 -156.082031 -84.875 L -155.082031 -87.203125 C -76.230469 -45.617188 12.265625 -30.3125 100.433594 -42.953125 L 108.417969 -44.285156 C 143.683594 -50.273438 181.28125 -60.585938 225.863281 -76.890625 C 242.164062 -82.878906 258.46875 -89.199219 274.4375 -95.523438 C 324.675781 -115.152344 376.910156 -135.445312 429.808594 -143.097656 C 476.386719 -150.085938 525.296875 -149.085938 588.507812 -140.769531 C 603.148438 -138.773438 617.785156 -136.445312 632.425781 -134.113281 C 674.679688 -127.460938 718.59375 -120.472656 761.847656 -122.136719 C 783.140625 -123.136719 804.765625 -126.128906 825.726562 -130.789062 C 856 -137.109375 886.277344 -146.757812 915.554688 -156.074219 C 929.527344 -160.398438 944.167969 -165.054688 958.472656 -169.382812 C 1011.042969 -184.6875 1065.273438 -195.996094 1119.503906 -203.316406 C 1186.375 -212.632812 1254.914062 -216.292969 1306.8125 -218.289062 C 1324.78125 -218.953125 1342.746094 -219.289062 1361.042969 -219.289062 C 1536.710938 -218.953125 1732.339844 -184.6875 1883.386719 -126.464844 Z M 1883.386719 -138.773438 L 1882.390625 -136.445312 C 1724.6875 -201.988281 1502.441406 -242.242188 1316.796875 -238.917969 C 1210.332031 -236.921875 1087.230469 -231.929688 973.445312 -197.996094 C 954.148438 -192.339844 934.851562 -185.683594 916.222656 -179.03125 C 872.304688 -163.726562 826.722656 -148.089844 779.8125 -143.429688 C 722.921875 -137.441406 665.03125 -148.089844 609.46875 -158.070312 C 556.570312 -167.71875 502.339844 -177.367188 448.441406 -173.375 C 381.898438 -168.382812 318.6875 -142.765625 257.46875 -118.144531 C 210.558594 -99.179688 161.984375 -79.550781 112.078125 -68.90625 C 22.582031 -50.605469 -72.238281 -61.585938 -155.082031 -100.179688 L -154.085938 -102.507812 C -71.90625 -64.246094 22.582031 -52.9375 111.414062 -71.234375 C 161.316406 -81.546875 209.558594 -101.175781 256.472656 -120.140625 C 317.6875 -145.09375 381.234375 -170.710938 448.109375 -175.703125 C 502.339844 -179.695312 556.902344 -169.714844 609.800781 -160.398438 C 665.363281 -150.417969 722.921875 -140.105469 779.480469 -145.757812 C 826.058594 -150.417969 871.304688 -166.054688 915.222656 -181.027344 C 933.855469 -187.347656 953.484375 -194.335938 972.78125 -199.992188 C 1086.566406 -234.257812 1209.996094 -239.25 1316.792969 -240.914062 C 1323.78125 -240.914062 1331.101562 -241.246094 1338.421875 -241.246094 C 1519.742188 -241.578125 1731.34375 -201.988281 1883.386719 -138.773438 Z M 1887.378906 65.507812 L 1887.046875 67.835938 C 1590.609375 13.605469 1275.871094 134.375 997.734375 241.171875 L 997.066406 241.507812 C 985.421875 245.832031 973.777344 250.488281 962.132812 255.148438 C 861.324219 295.070312 757.1875 335.992188 655.050781 307.382812 C 616.457031 296.402344 579.859375 262.800781 544.925781 229.863281 C 496.015625 184.28125 449.4375 141.363281 397.871094 154.339844 C 355.617188 164.984375 321.015625 229.195312 290.738281 286.089844 C 277.429688 310.707031 265.121094 333.996094 253.476562 349.632812 C 220.207031 394.882812 167.640625 454.4375 100.101562 452.441406 C 60.84375 451.109375 25.90625 428.484375 -0.375 409.1875 C -66.582031 359.949219 -121.148438 299.0625 -163.066406 227.867188 L -161.070312 226.535156 C -119.148438 297.398438 -64.585938 358.285156 1.289062 407.191406 C 27.238281 426.488281 61.507812 448.449219 99.769531 449.777344 C 166.308594 451.773438 217.878906 392.886719 251.148438 347.972656 C 262.792969 332.335938 275.101562 309.046875 288.410156 284.757812 C 319.019531 227.53125 353.953125 162.988281 397.203125 152.007812 C 403.527344 150.34375 409.847656 149.679688 416.167969 149.679688 C 462.082031 149.679688 505 189.605469 546.589844 228.199219 C 581.523438 260.804688 617.785156 294.40625 655.714844 305.050781 C 757.1875 333.664062 860.660156 292.742188 961.136719 253.152344 C 972.78125 248.492188 984.425781 243.835938 996.070312 239.511719 L 996.734375 239.175781 C 1227.296875 150.679688 1483.480469 52.199219 1733.671875 52.199219 C 1785.242188 52.199219 1836.476562 56.191406 1887.378906 65.507812 Z M 1887.378906 65.507812 " fill-opacity="1" fill-rule="nonzero"/></svg>