<svg id="visual" viewBox="0 0 1024 900" width="1024" height="900" xmlns="http://www.w3.org/2000/svg" xmlns:xlink="http://www.w3.org/1999/xlink" version="1.1"><rect x="0" y="0" width="1024" height="900" fill="#002566"></rect><path d="M0 258L28.5 256.8C57 255.7 114 253.3 170.8 239.5C227.7 225.7 284.3 200.3 341.2 186.8C398 173.3 455 171.7 512 172.2C569 172.7 626 175.3 682.8 187.2C739.7 199 796.3 220 853.2 219.7C910 219.3 967 197.7 995.5 186.8L1024 176L1024 0L995.5 0C967 0 910 0 853.2 0C796.3 0 739.7 0 682.8 0C626 0 569 0 512 0C455 0 398 0 341.2 0C284.3 0 227.7 0 170.8 0C114 0 57 0 28.5 0L0 0Z" fill="#0368fe" stroke-linecap="round" stroke-linejoin="miter"></path></svg>